# Wavefront OBJ file automatically generated by Tiled2Unity

# Vertices (Count = 116)
v -160 -448 0
v -192 -448 0
v -192 -416 0
v -160 -416 0
v -224 -448 0
v -224 -416 0
v -256 -448 0
v -256 -416 0
v -288 -448 0
v -288 -416 0
v -320 -448 0
v -320 -416 0
v -352 -448 0
v -352 -416 0
v -384 -448 0
v -384 -416 0
v -416 -448 0
v -416 -416 0
v -448 -448 0
v -448 -416 0
v -480 -448 0
v -480 -416 0
v -512 -448 0
v -512 -416 0
v -544 -448 0
v -544 -416 0
v -576 -448 0
v -576 -416 0
v -160 -256 0
v -192 -256 0
v -192 -224 0
v -160 -224 0
v -224 -256 0
v -224 -224 0
v -256 -256 0
v -256 -224 0
v -288 -256 0
v -288 -224 0
v -320 -256 0
v -320 -224 0
v -352 -256 0
v -352 -224 0
v -384 -256 0
v -384 -224 0
v -416 -256 0
v -416 -224 0
v -448 -256 0
v -448 -224 0
v -480 -256 0
v -480 -224 0
v -512 -256 0
v -512 -224 0
v -544 -256 0
v -544 -224 0
v -576 -256 0
v -576 -224 0
v -160 -288 0
v -192 -288 0
v -224 -288 0
v -256 -288 0
v -288 -288 0
v -320 -288 0
v -352 -288 0
v -384 -288 0
v -416 -288 0
v -448 -288 0
v -480 -288 0
v -512 -288 0
v -544 -288 0
v -576 -288 0
v -160 -320 0
v -192 -320 0
v -224 -320 0
v -256 -320 0
v -288 -320 0
v -320 -320 0
v -352 -320 0
v -384 -320 0
v -416 -320 0
v -448 -320 0
v -480 -320 0
v -512 -320 0
v -544 -320 0
v -576 -320 0
v -160 -352 0
v -192 -352 0
v -224 -352 0
v -256 -352 0
v -288 -352 0
v -320 -352 0
v -352 -352 0
v -384 -352 0
v -416 -352 0
v -448 -352 0
v -480 -352 0
v -512 -352 0
v -544 -352 0
v -576 -352 0
v -160 -384 0
v -192 -384 0
v -224 -384 0
v -256 -384 0
v -288 -384 0
v -320 -384 0
v -352 -384 0
v -384 -384 0
v -416 -384 0
v -448 -384 0
v -480 -384 0
v -512 -384 0
v -544 -384 0
v -576 -384 0
v 0 -32 0
v -32 -32 0
v -32 0 0
v 0 0 0

# Texture cooridinates (Count = 100)
vt 0.0001220703 0.2001221
vt 0.04987793 0.2001221
vt 0.04987793 0.2665446
vt 0.0001220703 0.2665446
vt 0.1001221 0.2001221
vt 0.1498779 0.2001221
vt 0.1498779 0.2665446
vt 0.1001221 0.2665446
vt 0.1501221 0.2001221
vt 0.1998779 0.2001221
vt 0.1998779 0.2665446
vt 0.1501221 0.2665446
vt 0.2001221 0.2001221
vt 0.2498779 0.2001221
vt 0.2498779 0.2665446
vt 0.2001221 0.2665446
vt 0.2501221 0.2001221
vt 0.2998779 0.2001221
vt 0.2998779 0.2665446
vt 0.2501221 0.2665446
vt 0.3001221 0.2001221
vt 0.3498779 0.2001221
vt 0.3498779 0.2665446
vt 0.3001221 0.2665446
vt 0.3501221 0.2001221
vt 0.3998779 0.2001221
vt 0.3998779 0.2665446
vt 0.3501221 0.2665446
vt 0.05012207 0.2001221
vt 0.09987793 0.2001221
vt 0.09987793 0.2665446
vt 0.05012207 0.2665446
vt 0.2001221 0.8667887
vt 0.2498779 0.8667887
vt 0.2498779 0.9332113
vt 0.2001221 0.9332113
vt 0.0001220703 0.2667888
vt 0.04987793 0.2667888
vt 0.04987793 0.3332113
vt 0.0001220703 0.3332113
vt 0.0001220703 0.4001221
vt 0.04987793 0.4001221
vt 0.04987793 0.4665446
vt 0.0001220703 0.4665446
vt 0.2001221 0.4001221
vt 0.2498779 0.4001221
vt 0.2498779 0.4665446
vt 0.2001221 0.4665446
vt 0.0001220703 0.3334554
vt 0.04987793 0.3334554
vt 0.04987793 0.3998779
vt 0.0001220703 0.3998779
vt 0.2001221 0.3334554
vt 0.2498779 0.3334554
vt 0.2498779 0.3998779
vt 0.2001221 0.3998779
vt 0.4001221 0.8667887
vt 0.4498779 0.8667887
vt 0.4498779 0.9332113
vt 0.4001221 0.9332113
vt 0.2001221 0.2667888
vt 0.2498779 0.2667888
vt 0.2498779 0.3332113
vt 0.2001221 0.3332113
vt 0.2501221 0.3334554
vt 0.2998779 0.3334554
vt 0.2998779 0.3998779
vt 0.2501221 0.3998779
vt 0.3001221 0.3334554
vt 0.3498779 0.3334554
vt 0.3498779 0.3998779
vt 0.3001221 0.3998779
vt 0.3501221 0.3334554
vt 0.3998779 0.3334554
vt 0.3998779 0.3998779
vt 0.3501221 0.3998779
vt 0.0001220703 0.7334554
vt 0.04987793 0.7334554
vt 0.04987793 0.7998779
vt 0.0001220703 0.7998779
vt 0.4001221 0.8001221
vt 0.4498779 0.8001221
vt 0.4498779 0.8665446
vt 0.4001221 0.8665446
vt 0.1501221 0.2667888
vt 0.1998779 0.2667888
vt 0.1998779 0.3332113
vt 0.1501221 0.3332113
vt 0.2501221 0.2667888
vt 0.2998779 0.2667888
vt 0.2998779 0.3332113
vt 0.2501221 0.3332113
vt 0.3501221 0.2667888
vt 0.3998779 0.2667888
vt 0.3998779 0.3332113
vt 0.3501221 0.3332113
vt 0.3001221 0.2667888
vt 0.3498779 0.2667888
vt 0.3498779 0.3332113
vt 0.3001221 0.3332113

# Normal
vn 0 0 -1

# Groups (Count = 3)

g mesh_0001
f 1/1/1 2/2/1 3/3/1 4/4/1
f 2/1/1 5/2/1 6/3/1 3/4/1
f 5/1/1 7/2/1 8/3/1 6/4/1
f 7/5/1 9/6/1 10/7/1 8/8/1
f 9/5/1 11/6/1 12/7/1 10/8/1
f 11/9/1 13/10/1 14/11/1 12/12/1
f 13/13/1 15/14/1 16/15/1 14/16/1
f 15/13/1 17/14/1 18/15/1 16/16/1
f 17/17/1 19/18/1 20/19/1 18/20/1
f 19/21/1 21/22/1 22/23/1 20/24/1
f 21/25/1 23/26/1 24/27/1 22/28/1
f 23/29/1 25/30/1 26/31/1 24/32/1
f 25/29/1 27/30/1 28/31/1 26/32/1

g mesh_0002
f 29/33/1 30/34/1 31/35/1 32/36/1
f 30/33/1 33/34/1 34/35/1 31/36/1
f 33/37/1 35/38/1 36/39/1 34/40/1
f 35/37/1 37/38/1 38/39/1 36/40/1
f 37/37/1 39/38/1 40/39/1 38/40/1
f 39/37/1 41/38/1 42/39/1 40/40/1
f 41/37/1 43/38/1 44/39/1 42/40/1
f 43/37/1 45/38/1 46/39/1 44/40/1
f 45/37/1 47/38/1 48/39/1 46/40/1
f 47/37/1 49/38/1 50/39/1 48/40/1
f 49/37/1 51/38/1 52/39/1 50/40/1
f 51/37/1 53/38/1 54/39/1 52/40/1
f 53/37/1 55/38/1 56/39/1 54/40/1
f 57/33/1 58/34/1 30/35/1 29/36/1
f 58/33/1 59/34/1 33/35/1 30/36/1
f 59/41/1 60/42/1 35/43/1 33/44/1
f 60/37/1 61/38/1 37/39/1 35/40/1
f 61/37/1 62/38/1 39/39/1 37/40/1
f 62/37/1 63/38/1 41/39/1 39/40/1
f 63/37/1 64/38/1 43/39/1 41/40/1
f 64/37/1 65/38/1 45/39/1 43/40/1
f 65/37/1 66/38/1 47/39/1 45/40/1
f 66/37/1 67/38/1 49/39/1 47/40/1
f 67/37/1 68/38/1 51/39/1 49/40/1
f 68/37/1 69/38/1 53/39/1 51/40/1
f 69/45/1 70/46/1 55/47/1 53/48/1
f 71/33/1 72/34/1 58/35/1 57/36/1
f 72/33/1 73/34/1 59/35/1 58/36/1
f 73/33/1 74/34/1 60/35/1 59/36/1
f 74/41/1 75/42/1 61/43/1 60/44/1
f 75/37/1 76/38/1 62/39/1 61/40/1
f 76/37/1 77/38/1 63/39/1 62/40/1
f 77/37/1 78/38/1 64/39/1 63/40/1
f 78/37/1 79/38/1 65/39/1 64/40/1
f 79/37/1 80/38/1 66/39/1 65/40/1
f 80/37/1 81/38/1 67/39/1 66/40/1
f 81/37/1 82/38/1 68/39/1 67/40/1
f 82/45/1 83/46/1 69/47/1 68/48/1
f 83/33/1 84/34/1 70/35/1 69/36/1
f 85/33/1 86/34/1 72/35/1 71/36/1
f 86/33/1 87/34/1 73/35/1 72/36/1
f 87/33/1 88/34/1 74/35/1 73/36/1
f 88/49/1 89/50/1 75/51/1 74/52/1
f 89/33/1 90/34/1 76/35/1 75/36/1
f 90/33/1 91/34/1 77/35/1 76/36/1
f 91/33/1 92/34/1 78/35/1 77/36/1
f 92/33/1 93/34/1 79/35/1 78/36/1
f 93/33/1 94/34/1 80/35/1 79/36/1
f 94/33/1 95/34/1 81/35/1 80/36/1
f 95/33/1 96/34/1 82/35/1 81/36/1
f 96/53/1 97/54/1 83/55/1 82/56/1
f 97/33/1 98/34/1 84/35/1 83/36/1
f 99/33/1 100/34/1 86/35/1 85/36/1
f 100/33/1 101/34/1 87/35/1 86/36/1
f 101/33/1 102/34/1 88/35/1 87/36/1
f 102/49/1 103/50/1 89/51/1 88/52/1
f 103/57/1 104/58/1 90/59/1 89/60/1
f 104/33/1 105/34/1 91/35/1 90/36/1
f 105/61/1 106/62/1 92/63/1 91/64/1
f 106/61/1 107/62/1 93/63/1 92/64/1
f 107/65/1 108/66/1 94/67/1 93/68/1
f 108/69/1 109/70/1 95/71/1 94/72/1
f 109/73/1 110/74/1 96/75/1 95/76/1
f 110/53/1 111/54/1 97/55/1 96/56/1
f 111/33/1 112/34/1 98/35/1 97/36/1
f 4/33/1 3/34/1 100/35/1 99/36/1
f 3/33/1 6/34/1 101/35/1 100/36/1
f 6/77/1 8/78/1 102/79/1 101/80/1
f 8/49/1 10/50/1 103/51/1 102/52/1
f 10/81/1 12/82/1 104/83/1 103/84/1
f 12/85/1 14/86/1 105/87/1 104/88/1
f 14/33/1 16/34/1 106/35/1 105/36/1
f 16/61/1 18/62/1 107/63/1 106/64/1
f 18/89/1 20/90/1 108/91/1 107/92/1
f 22/93/1 24/94/1 110/95/1 109/96/1
f 24/53/1 26/54/1 111/55/1 110/56/1
f 26/33/1 28/34/1 112/35/1 111/36/1

g mesh_tile_0207
f 113/97/1 114/98/1 115/99/1 116/100/1

