# Wavefront OBJ file automatically generated by Tiled2Unity

# Vertices (Count = 301)
v -160 -512 0
v -192 -512 0
v -192 -480 0
v -160 -480 0
v -224 -512 0
v -224 -480 0
v -256 -512 0
v -256 -480 0
v -288 -512 0
v -288 -480 0
v -320 -512 0
v -320 -480 0
v -352 -512 0
v -352 -480 0
v -384 -512 0
v -384 -480 0
v -416 -512 0
v -416 -480 0
v -448 -512 0
v -448 -480 0
v -480 -512 0
v -480 -480 0
v -512 -512 0
v -512 -480 0
v -544 -512 0
v -544 -480 0
v -576 -512 0
v -576 -480 0
v -608 -512 0
v -608 -480 0
v -640 -512 0
v -640 -480 0
v -672 -512 0
v -672 -480 0
v -704 -512 0
v -704 -480 0
v -736 -512 0
v -736 -480 0
v -768 -512 0
v -768 -480 0
v -800 -512 0
v -800 -480 0
v -832 -512 0
v -832 -480 0
v -864 -512 0
v -864 -480 0
v -896 -512 0
v -896 -480 0
v -928 -512 0
v -928 -480 0
v -160 -544 0
v -192 -544 0
v -224 -544 0
v -256 -544 0
v -288 -544 0
v -320 -544 0
v -352 -544 0
v -384 -544 0
v -416 -544 0
v -448 -544 0
v -480 -544 0
v -512 -544 0
v -544 -544 0
v -576 -544 0
v -608 -544 0
v -640 -544 0
v -672 -544 0
v -704 -544 0
v -736 -544 0
v -832 -544 0
v -864 -544 0
v -896 -544 0
v -928 -544 0
v -160 -576 0
v -192 -576 0
v -224 -576 0
v -256 -576 0
v -288 -576 0
v -320 -576 0
v -352 -576 0
v -384 -576 0
v -416 -576 0
v -448 -576 0
v -480 -576 0
v -512 -576 0
v -544 -576 0
v -576 -576 0
v -608 -576 0
v -640 -576 0
v -672 -576 0
v -704 -576 0
v -800 -576 0
v -832 -576 0
v -800 -544 0
v -864 -576 0
v -896 -576 0
v -928 -576 0
v -960 -576 0
v -960 -544 0
v -160 -608 0
v -192 -608 0
v -224 -608 0
v -256 -608 0
v -288 -608 0
v -320 -608 0
v -352 -608 0
v -480 -608 0
v -512 -608 0
v -160 -640 0
v -192 -640 0
v -224 -640 0
v -256 -640 0
v -288 -640 0
v -320 -640 0
v -352 -640 0
v -800 -640 0
v -832 -640 0
v -832 -608 0
v -800 -608 0
v -864 -640 0
v -864 -608 0
v -896 -640 0
v -896 -608 0
v -928 -640 0
v -928 -608 0
v -960 -640 0
v -960 -608 0
v -992 -640 0
v -1024 -640 0
v -1024 -608 0
v -992 -608 0
v -160 -672 0
v -192 -672 0
v -224 -672 0
v -256 -672 0
v -288 -672 0
v -320 -672 0
v -352 -672 0
v -384 -672 0
v -384 -640 0
v -416 -672 0
v -416 -640 0
v -448 -672 0
v -448 -640 0
v -480 -672 0
v -480 -640 0
v -512 -672 0
v -512 -640 0
v -544 -672 0
v -544 -640 0
v -576 -672 0
v -576 -640 0
v -608 -672 0
v -608 -640 0
v -640 -672 0
v -640 -640 0
v -672 -672 0
v -672 -640 0
v -704 -672 0
v -704 -640 0
v -832 -672 0
v -864 -672 0
v -896 -672 0
v -160 -704 0
v -192 -704 0
v -224 -704 0
v -256 -704 0
v -288 -704 0
v -320 -704 0
v -352 -704 0
v -384 -704 0
v -416 -704 0
v -448 -704 0
v -480 -704 0
v -512 -704 0
v -544 -704 0
v -576 -704 0
v -608 -704 0
v -640 -704 0
v -672 -704 0
v -704 -704 0
v -736 -704 0
v -736 -672 0
v -768 -704 0
v -768 -672 0
v -800 -704 0
v -800 -672 0
v -832 -704 0
v -864 -704 0
v -896 -704 0
v -928 -704 0
v -928 -672 0
v -160 -736 0
v -192 -736 0
v -224 -736 0
v -256 -736 0
v -288 -736 0
v -320 -736 0
v -352 -736 0
v -384 -736 0
v -416 -736 0
v -448 -736 0
v -480 -736 0
v -512 -736 0
v -544 -736 0
v -576 -736 0
v -608 -736 0
v -640 -736 0
v -672 -736 0
v -704 -736 0
v -736 -736 0
v -768 -736 0
v -800 -736 0
v -832 -736 0
v -864 -736 0
v -896 -736 0
v -928 -736 0
v -960 -736 0
v -960 -704 0
v -992 -736 0
v -992 -704 0
v -1024 -736 0
v -1024 -704 0
v -672 -768 0
v -704 -768 0
v -672 -800 0
v -704 -800 0
v -1056 -800 0
v -1088 -800 0
v -1088 -768 0
v -1056 -768 0
v -672 -832 0
v -704 -832 0
v -1056 -832 0
v -1088 -832 0
v -672 -864 0
v -704 -864 0
v -704 -896 0
v -736 -896 0
v -736 -864 0
v -768 -896 0
v -768 -864 0
v -800 -896 0
v -800 -864 0
v -832 -896 0
v -832 -864 0
v -864 -896 0
v -864 -864 0
v -896 -896 0
v -896 -864 0
v -928 -896 0
v -928 -864 0
v -736 -928 0
v -768 -928 0
v -800 -928 0
v -832 -928 0
v -864 -928 0
v -896 -928 0
v -928 -928 0
v -960 -928 0
v -960 -896 0
v -992 -928 0
v -992 -896 0
v -1024 -928 0
v -1024 -896 0
v -1056 -928 0
v -1056 -896 0
v -1088 -928 0
v -1088 -896 0
v -1120 -928 0
v -1120 -896 0
v -768 -576 0
v -768 -544 0
v -1024 -576 0
v -1056 -576 0
v -1056 -544 0
v -1024 -544 0
v -768 -608 0
v -1056 -608 0
v -768 -640 0
v -1056 -640 0
v -1056 -736 0
v -1056 -704 0
v -1120 -736 0
v -1152 -736 0
v -1152 -704 0
v -1120 -704 0
v -1024 -768 0
v -1120 -768 0
v -1152 -768 0
v -1024 -800 0
v -1120 -800 0
v -1152 -800 0
v -1024 -832 0
v -1120 -832 0
v -1152 -832 0
v -1024 -864 0
v -1056 -864 0
v -1120 -864 0
v -1152 -864 0
v -1152 -896 0

# Texture Coorindates (Count = 248)
vt 0.4501221 0.7334554
vt 0.4998779 0.7334554
vt 0.4998779 0.7998779
vt 0.4501221 0.7998779
vt 0.5001221 0.9334554
vt 0.5498779 0.9334554
vt 0.5498779 0.9998779
vt 0.5001221 0.9998779
vt 0.0001220703 0.9334554
vt 0.04987793 0.9334554
vt 0.04987793 0.9998779
vt 0.0001220703 0.9998779
vt 0.05012207 0.9334554
vt 0.09987793 0.9334554
vt 0.09987793 0.9998779
vt 0.05012207 0.9998779
vt 0.1001221 0.9334554
vt 0.1498779 0.9334554
vt 0.1498779 0.9998779
vt 0.1001221 0.9998779
vt 0.1501221 0.9334554
vt 0.1998779 0.9334554
vt 0.1998779 0.9998779
vt 0.1501221 0.9998779
vt 0.2001221 0.9334554
vt 0.2498779 0.9334554
vt 0.2498779 0.9998779
vt 0.2001221 0.9998779
vt 0.3001221 0.9334554
vt 0.3498779 0.9334554
vt 0.3498779 0.9998779
vt 0.3001221 0.9998779
vt 0.3501221 0.9334554
vt 0.3998779 0.9334554
vt 0.3998779 0.9998779
vt 0.3501221 0.9998779
vt 0.1001221 0.8001221
vt 0.1498779 0.8001221
vt 0.1498779 0.8665446
vt 0.1001221 0.8665446
vt 0.1501221 0.8001221
vt 0.1998779 0.8001221
vt 0.1998779 0.8665446
vt 0.1501221 0.8665446
vt 0.2001221 0.8001221
vt 0.2498779 0.8001221
vt 0.2498779 0.8665446
vt 0.2001221 0.8665446
vt 0.4001221 0.6001221
vt 0.4498779 0.6001221
vt 0.4498779 0.6665446
vt 0.4001221 0.6665446
vt 0.8501221 0.4001221
vt 0.8998779 0.4001221
vt 0.8998779 0.4665446
vt 0.8501221 0.4665446
vt 0.0001220703 0.8667887
vt 0.04987793 0.8667887
vt 0.04987793 0.9332113
vt 0.0001220703 0.9332113
vt 0.1001221 0.8667887
vt 0.1498779 0.8667887
vt 0.1498779 0.9332113
vt 0.1001221 0.9332113
vt 0.5001221 0.8667887
vt 0.5498779 0.8667887
vt 0.5498779 0.9332113
vt 0.5001221 0.9332113
vt 0.4001221 0.8667887
vt 0.4498779 0.8667887
vt 0.4498779 0.9332113
vt 0.4001221 0.9332113
vt 0.4501221 0.8667887
vt 0.4998779 0.8667887
vt 0.4998779 0.9332113
vt 0.4501221 0.9332113
vt 0.3001221 0.8667887
vt 0.3498779 0.8667887
vt 0.3498779 0.9332113
vt 0.3001221 0.9332113
vt 0.05012207 0.7334554
vt 0.09987793 0.7334554
vt 0.09987793 0.7998779
vt 0.05012207 0.7998779
vt 0.1001221 0.7334554
vt 0.1498779 0.7334554
vt 0.1498779 0.7998779
vt 0.1001221 0.7998779
vt 0.1501221 0.7334554
vt 0.1998779 0.7334554
vt 0.1998779 0.7998779
vt 0.1501221 0.7998779
vt 0.2001221 0.7334554
vt 0.2498779 0.7334554
vt 0.2498779 0.7998779
vt 0.2001221 0.7998779
vt 0.2501221 0.7334554
vt 0.2998779 0.7334554
vt 0.2998779 0.7998779
vt 0.2501221 0.7998779
vt 0.4001221 0.7334554
vt 0.4498779 0.7334554
vt 0.4498779 0.7998779
vt 0.4001221 0.7998779
vt 0.3501221 0.7334554
vt 0.3998779 0.7334554
vt 0.3998779 0.7998779
vt 0.3501221 0.7998779
vt 0.5001221 0.8001221
vt 0.5498779 0.8001221
vt 0.5498779 0.8665446
vt 0.5001221 0.8665446
vt 0.8501221 0.2667888
vt 0.8998779 0.2667888
vt 0.8998779 0.3332113
vt 0.8501221 0.3332113
vt 0.9501221 0.2667888
vt 0.9998779 0.2667888
vt 0.9998779 0.3332113
vt 0.9501221 0.3332113
vt 0.5501221 0.7334554
vt 0.599878 0.7334554
vt 0.599878 0.7998779
vt 0.5501221 0.7998779
vt 0.5001221 0.7334554
vt 0.5498779 0.7334554
vt 0.5498779 0.7998779
vt 0.5001221 0.7998779
vt 0.0001220703 0.6667888
vt 0.04987793 0.6667888
vt 0.04987793 0.7332113
vt 0.0001220703 0.7332113
vt 0.05012207 0.6667888
vt 0.09987793 0.6667888
vt 0.09987793 0.7332113
vt 0.05012207 0.7332113
vt 0.1001221 0.6667888
vt 0.1498779 0.6667888
vt 0.1498779 0.7332113
vt 0.1001221 0.7332113
vt 0.1501221 0.6667888
vt 0.1998779 0.6667888
vt 0.1998779 0.7332113
vt 0.1501221 0.7332113
vt 0.3501221 0.6667888
vt 0.3998779 0.6667888
vt 0.3998779 0.7332113
vt 0.3501221 0.7332113
vt 0.4001221 0.6667888
vt 0.4498779 0.6667888
vt 0.4498779 0.7332113
vt 0.4001221 0.7332113
vt 0.4501221 0.6667888
vt 0.4998779 0.6667888
vt 0.4998779 0.7332113
vt 0.4501221 0.7332113
vt 0.4501221 0.6001221
vt 0.4998779 0.6001221
vt 0.4998779 0.6665446
vt 0.4501221 0.6665446
vt 0.3501221 0.6001221
vt 0.3998779 0.6001221
vt 0.3998779 0.6665446
vt 0.3501221 0.6665446
vt 0.8501221 0.6001221
vt 0.8998779 0.6001221
vt 0.8998779 0.6665446
vt 0.8501221 0.6665446
vt 0.8501221 0.5334554
vt 0.8998779 0.5334554
vt 0.8998779 0.599878
vt 0.8501221 0.599878
vt 0.900122 0.2001221
vt 0.9498779 0.2001221
vt 0.9498779 0.2665446
vt 0.900122 0.2665446
vt 0.900122 0.1334554
vt 0.9498779 0.1334554
vt 0.9498779 0.1998779
vt 0.900122 0.1998779
vt 0.0001220703 0.7334554
vt 0.04987793 0.7334554
vt 0.04987793 0.7998779
vt 0.0001220703 0.7998779
vt 0.3001221 0.6667888
vt 0.3498779 0.6667888
vt 0.3498779 0.7332113
vt 0.3001221 0.7332113
vt 0.6001221 0.8001221
vt 0.6498779 0.8001221
vt 0.6498779 0.8665446
vt 0.6001221 0.8665446
vt 0.650122 0.8001221
vt 0.6998779 0.8001221
vt 0.6998779 0.8665446
vt 0.650122 0.8665446
vt 0.3001221 0.6001221
vt 0.3498779 0.6001221
vt 0.3498779 0.6665446
vt 0.3001221 0.6665446
vt 0.6001221 0.7334554
vt 0.6498779 0.7334554
vt 0.6498779 0.7998779
vt 0.6001221 0.7998779
vt 0.650122 0.7334554
vt 0.6998779 0.7334554
vt 0.6998779 0.7998779
vt 0.650122 0.7998779
vt 0.0001220703 0.6001221
vt 0.04987793 0.6001221
vt 0.04987793 0.6665446
vt 0.0001220703 0.6665446
vt 0.05012207 0.6001221
vt 0.09987793 0.6001221
vt 0.09987793 0.6665446
vt 0.05012207 0.6665446
vt 0.1001221 0.6001221
vt 0.1498779 0.6001221
vt 0.1498779 0.6665446
vt 0.1001221 0.6665446
vt 0.1501221 0.6001221
vt 0.1998779 0.6001221
vt 0.1998779 0.6665446
vt 0.1501221 0.6665446
vt 0.2001221 0.6001221
vt 0.2498779 0.6001221
vt 0.2498779 0.6665446
vt 0.2001221 0.6665446
vt 0.9501221 0.2001221
vt 0.9998779 0.2001221
vt 0.9998779 0.2665446
vt 0.9501221 0.2665446
vt 0.8501221 0.4667887
vt 0.8998779 0.4667887
vt 0.8998779 0.5332113
vt 0.8501221 0.5332113
vt 0.9501221 0.3334554
vt 0.9998779 0.3334554
vt 0.9998779 0.3998779
vt 0.9501221 0.3998779
vt 0.8501221 0.2001221
vt 0.8998779 0.2001221
vt 0.8998779 0.2665446
vt 0.8501221 0.2665446
vt 0.8501221 0.1334554
vt 0.8998779 0.1334554
vt 0.8998779 0.1998779
vt 0.8501221 0.1998779

# Normal
vn 0 0 -1

# Groups (Count = 2)
g mesh_[00]_[00]
f  1/1/1  2/2/1  3/3/1  4/4/1 
f  2/1/1  5/2/1  6/3/1  3/4/1 
f  5/1/1  7/2/1  8/3/1  6/4/1 
f  7/1/1  9/2/1  10/3/1  8/4/1 
f  9/1/1  11/2/1  12/3/1  10/4/1 
f  11/1/1  13/2/1  14/3/1  12/4/1 
f  13/1/1  15/2/1  16/3/1  14/4/1 
f  15/1/1  17/2/1  18/3/1  16/4/1 
f  17/1/1  19/2/1  20/3/1  18/4/1 
f  19/1/1  21/2/1  22/3/1  20/4/1 
f  21/1/1  23/2/1  24/3/1  22/4/1 
f  23/1/1  25/2/1  26/3/1  24/4/1 
f  25/1/1  27/2/1  28/3/1  26/4/1 
f  27/1/1  29/2/1  30/3/1  28/4/1 
f  29/1/1  31/2/1  32/3/1  30/4/1 
f  31/1/1  33/2/1  34/3/1  32/4/1 
f  33/1/1  35/2/1  36/3/1  34/4/1 
f  35/1/1  37/2/1  38/3/1  36/4/1 
f  37/1/1  39/2/1  40/3/1  38/4/1 
f  39/1/1  41/2/1  42/3/1  40/4/1 
f  41/1/1  43/2/1  44/3/1  42/4/1 
f  43/1/1  45/2/1  46/3/1  44/4/1 
f  45/1/1  47/2/1  48/3/1  46/4/1 
f  47/1/1  49/2/1  50/3/1  48/4/1 
f  51/5/1  52/6/1  2/7/1  1/8/1 
f  52/5/1  53/6/1  5/7/1  2/8/1 
f  53/5/1  54/6/1  7/7/1  5/8/1 
f  54/5/1  55/6/1  9/7/1  7/8/1 
f  55/5/1  56/6/1  11/7/1  9/8/1 
f  56/5/1  57/6/1  13/7/1  11/8/1 
f  57/9/1  58/10/1  15/11/1  13/12/1 
f  58/13/1  59/14/1  17/15/1  15/16/1 
f  59/17/1  60/18/1  19/19/1  17/20/1 
f  60/21/1  61/22/1  21/23/1  19/24/1 
f  61/17/1  62/18/1  23/19/1  21/20/1 
f  62/5/1  63/6/1  25/7/1  23/8/1 
f  63/25/1  64/26/1  27/27/1  25/28/1 
f  64/21/1  65/22/1  29/23/1  27/24/1 
f  65/29/1  66/30/1  31/31/1  29/32/1 
f  66/33/1  67/34/1  33/35/1  31/36/1 
f  67/29/1  68/30/1  35/31/1  33/32/1 
f  68/33/1  69/34/1  37/35/1  35/36/1 
f  70/37/1  71/38/1  45/39/1  43/40/1 
f  71/41/1  72/42/1  47/43/1  45/44/1 
f  72/45/1  73/46/1  49/47/1  47/48/1 
f  74/49/1  75/50/1  52/51/1  51/52/1 
f  75/49/1  76/50/1  53/51/1  52/52/1 
f  76/49/1  77/50/1  54/51/1  53/52/1 
f  77/49/1  78/50/1  55/51/1  54/52/1 
f  78/49/1  79/50/1  56/51/1  55/52/1 
f  79/53/1  80/54/1  57/55/1  56/56/1 
f  80/57/1  81/58/1  58/59/1  57/60/1 
f  82/61/1  83/62/1  60/63/1  59/64/1 
f  84/65/1  85/66/1  62/67/1  61/68/1 
f  85/69/1  86/70/1  63/71/1  62/72/1 
f  86/73/1  87/74/1  64/75/1  63/76/1 
f  88/57/1  89/58/1  66/59/1  65/60/1 
f  90/77/1  91/78/1  68/79/1  67/80/1 
f  92/81/1  93/82/1  70/83/1  94/84/1 
f  93/85/1  95/86/1  71/87/1  70/88/1 
f  95/89/1  96/90/1  72/91/1  71/92/1 
f  96/93/1  97/94/1  73/95/1  72/96/1 
f  97/97/1  98/98/1  99/99/1  73/100/1 
f  100/101/1  101/102/1  75/103/1  74/104/1 
f  101/101/1  102/102/1  76/103/1  75/104/1 
f  102/101/1  103/102/1  77/103/1  76/104/1 
f  103/101/1  104/102/1  78/103/1  77/104/1 
f  104/105/1  105/106/1  79/107/1  78/108/1 
f  105/53/1  106/54/1  80/55/1  79/56/1 
f  107/109/1  108/110/1  85/111/1  84/112/1 
f  109/49/1  110/50/1  101/51/1  100/52/1 
f  110/49/1  111/50/1  102/51/1  101/52/1 
f  111/49/1  112/50/1  103/51/1  102/52/1 
f  112/49/1  113/50/1  104/51/1  103/52/1 
f  113/49/1  114/50/1  105/51/1  104/52/1 
f  114/53/1  115/54/1  106/55/1  105/56/1 
f  116/21/1  117/22/1  118/23/1  119/24/1 
f  117/21/1  120/22/1  121/23/1  118/24/1 
f  120/5/1  122/6/1  123/7/1  121/8/1 
f  122/5/1  124/6/1  125/7/1  123/8/1 
f  124/113/1  126/114/1  127/115/1  125/116/1 
f  128/117/1  129/118/1  130/119/1  131/120/1 
f  132/121/1  133/122/1  110/123/1  109/124/1 
f  133/121/1  134/122/1  111/123/1  110/124/1 
f  134/121/1  135/122/1  112/123/1  111/124/1 
f  135/121/1  136/122/1  113/123/1  112/124/1 
f  136/121/1  137/122/1  114/123/1  113/124/1 
f  137/125/1  138/126/1  115/127/1  114/128/1 
f  138/129/1  139/130/1  140/131/1  115/132/1 
f  139/133/1  141/134/1  142/135/1  140/136/1 
f  141/137/1  143/138/1  144/139/1  142/140/1 
f  143/141/1  145/142/1  146/143/1  144/144/1 
f  145/137/1  147/138/1  148/139/1  146/140/1 
f  147/141/1  149/142/1  150/143/1  148/144/1 
f  149/137/1  151/138/1  152/139/1  150/140/1 
f  151/141/1  153/142/1  154/143/1  152/144/1 
f  153/145/1  155/146/1  156/147/1  154/148/1 
f  155/149/1  157/150/1  158/151/1  156/152/1 
f  157/153/1  159/154/1  160/155/1  158/156/1 
f  161/69/1  162/70/1  120/71/1  117/72/1 
f  162/73/1  163/74/1  122/75/1  120/76/1 
f  164/49/1  165/50/1  133/51/1  132/52/1 
f  165/49/1  166/50/1  134/51/1  133/52/1 
f  166/49/1  167/50/1  135/51/1  134/52/1 
f  167/49/1  168/50/1  136/51/1  135/52/1 
f  168/49/1  169/50/1  137/51/1  136/52/1 
f  169/49/1  170/50/1  138/51/1  137/52/1 
f  170/49/1  171/50/1  139/51/1  138/52/1 
f  171/49/1  172/50/1  141/51/1  139/52/1 
f  172/49/1  173/50/1  143/51/1  141/52/1 
f  173/49/1  174/50/1  145/51/1  143/52/1 
f  174/49/1  175/50/1  147/51/1  145/52/1 
f  175/49/1  176/50/1  149/51/1  147/52/1 
f  176/49/1  177/50/1  151/51/1  149/52/1 
f  177/49/1  178/50/1  153/51/1  151/52/1 
f  178/49/1  179/50/1  155/51/1  153/52/1 
f  179/49/1  180/50/1  157/51/1  155/52/1 
f  180/157/1  181/158/1  159/159/1  157/160/1 
f  181/145/1  182/146/1  183/147/1  159/148/1 
f  182/149/1  184/150/1  185/151/1  183/152/1 
f  184/153/1  186/154/1  187/155/1  185/156/1 
f  188/37/1  189/38/1  162/39/1  161/40/1 
f  189/41/1  190/42/1  163/43/1  162/44/1 
f  190/45/1  191/46/1  192/47/1  163/48/1 
f  193/1/1  194/2/1  165/3/1  164/4/1 
f  194/1/1  195/2/1  166/3/1  165/4/1 
f  195/1/1  196/2/1  167/3/1  166/4/1 
f  196/1/1  197/2/1  168/3/1  167/4/1 
f  197/1/1  198/2/1  169/3/1  168/4/1 
f  198/1/1  199/2/1  170/3/1  169/4/1 
f  199/105/1  200/106/1  171/107/1  170/108/1 
f  200/101/1  201/102/1  172/103/1  171/104/1 
f  201/1/1  202/2/1  173/3/1  172/4/1 
f  202/105/1  203/106/1  174/107/1  173/108/1 
f  203/101/1  204/102/1  175/103/1  174/104/1 
f  204/1/1  205/2/1  176/3/1  175/4/1 
f  205/105/1  206/106/1  177/107/1  176/108/1 
f  206/101/1  207/102/1  178/103/1  177/104/1 
f  207/105/1  208/106/1  179/107/1  178/108/1 
f  208/105/1  209/106/1  180/107/1  179/108/1 
f  209/101/1  210/102/1  181/103/1  180/104/1 
f  210/161/1  211/162/1  182/163/1  181/164/1 
f  211/49/1  212/50/1  184/51/1  182/52/1 
f  212/157/1  213/158/1  186/159/1  184/160/1 
f  213/81/1  214/82/1  188/83/1  186/84/1 
f  214/85/1  215/86/1  189/87/1  188/88/1 
f  215/89/1  216/90/1  190/91/1  189/92/1 
f  216/93/1  217/94/1  191/95/1  190/96/1 
f  217/97/1  218/98/1  219/99/1  191/100/1 
f  218/81/1  220/82/1  221/83/1  219/84/1 
f  220/81/1  222/82/1  223/83/1  221/84/1 
f  224/165/1  225/166/1  210/167/1  209/168/1 
f  226/169/1  227/170/1  225/171/1  224/172/1 
f  228/173/1  229/174/1  230/175/1  231/176/1 
f  232/165/1  233/166/1  227/167/1  226/168/1 
f  234/177/1  235/178/1  229/179/1  228/180/1 
f  236/169/1  237/170/1  233/171/1  232/172/1 
f  238/181/1  239/182/1  240/183/1  237/184/1 
f  239/185/1  241/186/1  242/187/1  240/188/1 
f  241/145/1  243/146/1  244/147/1  242/148/1 
f  243/149/1  245/150/1  246/151/1  244/152/1 
f  245/153/1  247/154/1  248/155/1  246/156/1 
f  247/189/1  249/190/1  250/191/1  248/192/1 
f  249/193/1  251/194/1  252/195/1  250/196/1 
f  253/197/1  254/198/1  241/199/1  239/200/1 
f  254/161/1  255/162/1  243/163/1  241/164/1 
f  255/49/1  256/50/1  245/51/1  243/52/1 
f  256/157/1  257/158/1  247/159/1  245/160/1 
f  257/201/1  258/202/1  249/203/1  247/204/1 
f  258/205/1  259/206/1  251/207/1  249/208/1 
f  259/125/1  260/126/1  261/127/1  251/128/1 
f  260/209/1  262/210/1  263/211/1  261/212/1 
f  262/213/1  264/214/1  265/215/1  263/216/1 
f  264/217/1  266/218/1  267/219/1  265/220/1 
f  266/221/1  268/222/1  269/223/1  267/224/1 
f  268/225/1  270/226/1  271/227/1  269/228/1 
g mesh_[01]_[00]
f  272/229/1  92/230/1  94/231/1  273/232/1 
f  274/233/1  275/234/1  276/235/1  277/236/1 
f  278/237/1  119/238/1  92/239/1  272/240/1 
f  130/53/1  279/54/1  275/55/1  274/56/1 
f  280/117/1  116/118/1  119/119/1  278/120/1 
f  129/113/1  281/114/1  279/115/1  130/116/1 
f  222/233/1  282/234/1  283/235/1  223/236/1 
f  284/229/1  285/230/1  286/231/1  287/232/1 
f  288/53/1  231/54/1  282/55/1  222/56/1 
f  289/237/1  290/238/1  285/239/1  284/240/1 
f  291/241/1  228/242/1  231/243/1  288/244/1 
f  292/237/1  293/238/1  290/239/1  289/240/1 
f  294/245/1  234/246/1  228/247/1  291/248/1 
f  295/237/1  296/238/1  293/239/1  292/240/1 
f  297/113/1  298/114/1  234/115/1  294/116/1 
f  299/237/1  300/238/1  296/239/1  295/240/1 
f  271/117/1  301/118/1  300/119/1  299/120/1 
